<mxfile host="65bd71144e" scale="2" border="0">
    <diagram id="1dYxdTJA1GDzMD2I5d6G" name="第 1 页">
        <mxGraphModel dx="488" dy="276" grid="1" gridSize="20" guides="1" tooltips="1" connect="1" arrows="1" fold="1" page="1" pageScale="1" pageWidth="192000" pageHeight="108000" math="0" shadow="0">
            <root>
                <mxCell id="0"/>
                <mxCell id="1" parent="0"/>
                <mxCell id="8" value="" style="edgeStyle=none;html=1;fontFamily=宋体;fontSize=14;labelBackgroundColor=default;" edge="1" parent="1" source="2" target="5">
                    <mxGeometry relative="1" as="geometry"/>
                </mxCell>
                <mxCell id="2" value="&lt;font style=&quot;font-size: 28px&quot;&gt;开始&lt;/font&gt;" style="rounded=1;whiteSpace=wrap;html=1;fillColor=none;fontFamily=宋体;labelBackgroundColor=default;" vertex="1" parent="1">
                    <mxGeometry x="400" y="100" width="120" height="60" as="geometry"/>
                </mxCell>
                <mxCell id="19" value="" style="edgeStyle=none;html=1;fontFamily=宋体;fontSize=14;labelBackgroundColor=default;" edge="1" parent="1" source="3" target="4">
                    <mxGeometry relative="1" as="geometry"/>
                </mxCell>
                <mxCell id="3" value="根据筛选条件从数据库获取招聘信息" style="rounded=0;whiteSpace=wrap;html=1;fontFamily=宋体;fontSize=14;fillColor=none;labelBackgroundColor=default;" vertex="1" parent="1">
                    <mxGeometry x="400" y="361" width="120" height="60" as="geometry"/>
                </mxCell>
                <mxCell id="21" value="" style="edgeStyle=none;html=1;fontFamily=宋体;fontSize=14;labelBackgroundColor=default;" edge="1" parent="1" source="4" target="20">
                    <mxGeometry relative="1" as="geometry"/>
                </mxCell>
                <mxCell id="4" value="返回数据到前端" style="rounded=0;whiteSpace=wrap;html=1;fontFamily=宋体;fontSize=14;fillColor=none;labelBackgroundColor=default;" vertex="1" parent="1">
                    <mxGeometry x="400" y="449" width="120" height="60" as="geometry"/>
                </mxCell>
                <mxCell id="9" value="" style="edgeStyle=none;html=1;fontFamily=宋体;fontSize=14;labelBackgroundColor=default;" edge="1" parent="1" source="5" target="7">
                    <mxGeometry relative="1" as="geometry"/>
                </mxCell>
                <mxCell id="5" value="用户输入筛选条件" style="rounded=0;whiteSpace=wrap;html=1;fontFamily=宋体;fontSize=14;fillColor=none;labelBackgroundColor=default;" vertex="1" parent="1">
                    <mxGeometry x="400" y="187" width="120" height="60" as="geometry"/>
                </mxCell>
                <mxCell id="11" value="" style="edgeStyle=none;html=1;fontFamily=宋体;fontSize=14;labelBackgroundColor=default;" edge="1" parent="1" source="7" target="10">
                    <mxGeometry relative="1" as="geometry"/>
                </mxCell>
                <mxCell id="17" value="" style="edgeStyle=none;html=1;fontFamily=宋体;fontSize=14;labelBackgroundColor=default;" edge="1" parent="1" source="7" target="3">
                    <mxGeometry relative="1" as="geometry"/>
                </mxCell>
                <mxCell id="7" value="用户是否输入" style="rhombus;whiteSpace=wrap;html=1;fontFamily=宋体;fontSize=14;fillColor=none;labelBackgroundColor=default;" vertex="1" parent="1">
                    <mxGeometry x="400" y="264" width="120" height="80" as="geometry"/>
                </mxCell>
                <mxCell id="16" value="" style="edgeStyle=none;html=1;fontFamily=宋体;fontSize=14;labelBackgroundColor=default;" edge="1" parent="1" source="10" target="15">
                    <mxGeometry relative="1" as="geometry"/>
                </mxCell>
                <mxCell id="10" value="查询用户专业信息" style="whiteSpace=wrap;html=1;fontSize=14;fontFamily=宋体;fillColor=none;labelBackgroundColor=default;" vertex="1" parent="1">
                    <mxGeometry x="550" y="274" width="120" height="60" as="geometry"/>
                </mxCell>
                <mxCell id="12" value="否" style="text;html=1;align=center;verticalAlign=middle;resizable=0;points=[];autosize=1;strokeColor=none;fillColor=none;fontSize=14;fontFamily=宋体;labelBackgroundColor=default;" vertex="1" parent="1">
                    <mxGeometry x="510" y="280" width="30" height="20" as="geometry"/>
                </mxCell>
                <mxCell id="18" value="" style="edgeStyle=none;html=1;fontFamily=宋体;fontSize=14;labelBackgroundColor=default;" edge="1" parent="1" source="15" target="3">
                    <mxGeometry relative="1" as="geometry"/>
                </mxCell>
                <mxCell id="15" value="匹配该专业的行业为默认条件" style="whiteSpace=wrap;html=1;fontSize=14;fontFamily=宋体;fillColor=none;labelBackgroundColor=default;" vertex="1" parent="1">
                    <mxGeometry x="550" y="361" width="120" height="60" as="geometry"/>
                </mxCell>
                <mxCell id="23" value="" style="edgeStyle=none;html=1;fontFamily=宋体;fontSize=14;labelBackgroundColor=default;" edge="1" parent="1" source="20" target="22">
                    <mxGeometry relative="1" as="geometry"/>
                </mxCell>
                <mxCell id="20" value="用户选择一个招聘信息条目" style="whiteSpace=wrap;html=1;fontSize=14;fontFamily=宋体;fillColor=none;rounded=0;labelBackgroundColor=default;" vertex="1" parent="1">
                    <mxGeometry x="400" y="536" width="120" height="60" as="geometry"/>
                </mxCell>
                <mxCell id="33" value="" style="edgeStyle=none;html=1;fontFamily=宋体;fontSize=14;labelBackgroundColor=default;" edge="1" parent="1" source="22" target="32">
                    <mxGeometry relative="1" as="geometry"/>
                </mxCell>
                <mxCell id="22" value="根据id获取并返回详细信息" style="whiteSpace=wrap;html=1;fontSize=14;fontFamily=宋体;fillColor=none;rounded=0;labelBackgroundColor=default;" vertex="1" parent="1">
                    <mxGeometry x="400" y="623" width="120" height="60" as="geometry"/>
                </mxCell>
                <mxCell id="32" value="&lt;span style=&quot;font-size: 28px&quot;&gt;结束&lt;/span&gt;" style="rounded=1;whiteSpace=wrap;html=1;fillColor=none;fontFamily=宋体;labelBackgroundColor=default;" vertex="1" parent="1">
                    <mxGeometry x="400" y="710" width="120" height="60" as="geometry"/>
                </mxCell>
                <mxCell id="34" value="是" style="text;html=1;align=center;verticalAlign=middle;resizable=0;points=[];autosize=1;strokeColor=none;fillColor=none;fontSize=14;fontFamily=宋体;labelBackgroundColor=default;" vertex="1" parent="1">
                    <mxGeometry x="465" y="340" width="30" height="20" as="geometry"/>
                </mxCell>
            </root>
        </mxGraphModel>
    </diagram>
</mxfile>